<?xml version="1.0" standalone="no"?>
<!DOCTYPE svg PUBLIC "-//W3C//DTD SVG 20010904//EN"
 "http://www.w3.org/TR/2001/REC-SVG-20010904/DTD/svg10.dtd">
<svg version="1.0" xmlns="http://www.w3.org/2000/svg"
 width="568.000000pt" height="178.000000pt" viewBox="0 0 568.000000 178.000000"
 preserveAspectRatio="xMidYMid meet">
<defs>
<style>

body .light-theme #signature svg path {
  fill: #000 !important;
  stroke: #000 !important;
}

body .dark-theme #signature svg path {
  fill: #FFF !important;
  stroke: #FFF !important;
}

.signature {
  fill-opacity: 0;
  stroke-dasharray: 30000;
  stroke-dashoffset: 0;
  animation-timing-function: ease-in-out;
  animation-fill-mode: forwards;
  animation-iteration: 1;
  animation-name: DrawBorder, FillIn;
  animation-duration: 2s, 1s;
  animation-delay: 0s, 1.75s;
}

@-webkit-keyframes DrawBorder {
  from { 
    stroke-dashoffset: 30000; 
  }
  to { 
    stroke-dashoffset: 0; 
  }
}

@-webkit-keyframes FillIn {
  from { fill-opacity: 0; }
  to { fill-opacity: 1; }
}
</style>
</defs>
<g transform="translate(0.000000,178.000000) scale(0.100000,-0.100000)" 
  stroke-width="15" 
  stroke-miterlimit="0">
  <!--fill="#d0d9e8" stroke="#d0d9e8" -->
  <path class="signature" d="M1330 1516 c-62 -49 -303 -294 -455 -461 -55 -60 -102 -112 -105
  -115 -5 -4 -102 -113 -296 -330 -140 -156 -153 -178 -117 -198 11 -6 25 -6 40
  1 12 5 110 112 216 236 107 124 216 251 243 281 27 30 91 102 143 160 52 58
  160 170 239 250 140 140 145 144 154 120 11 -28 3 -297 -12 -413 -25 -196 -52
  -374 -65 -426 -6 -24 -6 -24 -109 -18 -57 4 -111 9 -120 13 -11 4 -19 -2 -26
  -21 -13 -35 6 -75 68 -145 41 -46 53 -53 94 -57 72 -8 103 20 141 128 4 12 23
  19 59 24 68 9 158 31 230 57 31 11 61 19 67 17 6 -2 -5 -30 -25 -64 -42 -69
  -56 -138 -30 -148 27 -11 71 41 127 148 29 55 65 119 81 142 15 23 28 46 28
  51 0 6 20 45 45 86 25 42 45 79 45 81 0 5 94 161 159 263 25 40 78 117 117
  170 126 173 143 173 125 5 -22 -203 -111 -625 -183 -865 -11 -37 -17 -72 -13
  -78 3 -5 19 -10 35 -10 21 0 36 10 62 43 18 23 43 53 55 67 61 71 213 269 286
  372 45 64 86 117 91 117 5 1 6 -16 2 -36 -56 -327 -44 -494 38 -544 77 -47
  182 0 364 160 l73 65 47 -17 c26 -10 55 -17 65 -17 25 0 21 -12 -13 -45 -63
  -60 -73 -129 -23 -162 33 -22 167 -12 253 20 147 54 351 152 445 213 14 9 25
  12 25 6 0 -21 -33 -112 -41 -112 -17 0 -79 -63 -79 -79 0 -25 32 -51 63 -51
  26 0 60 33 72 70 4 11 61 47 143 90 168 88 275 151 341 201 30 23 51 33 51 25
  0 -17 -98 -303 -116 -338 -8 -15 -14 -38 -14 -53 0 -36 25 -33 121 15 44 22
  103 50 132 61 63 25 226 106 282 140 22 14 57 33 79 44 55 28 98 73 94 99 -6
  40 -47 31 -145 -34 -105 -68 -138 -88 -243 -141 -97 -49 -189 -89 -205 -89
  -15 0 -11 17 65 230 29 80 55 154 58 165 3 11 11 26 19 33 29 30 102 131 131
  182 40 72 82 218 82 286 0 48 -3 56 -24 65 -38 18 -64 -5 -103 -89 -34 -73
  -109 -274 -139 -374 -25 -82 -197 -216 -446 -348 -65 -34 -118 -58 -118 -53 0
  5 11 42 24 83 13 41 31 109 41 150 9 41 32 140 51 220 60 252 63 264 70 306 7
  44 -7 84 -30 84 -27 0 -48 -41 -66 -131 -11 -52 -34 -161 -51 -244 -17 -82
  -35 -172 -41 -200 -14 -70 -17 -74 -105 -137 -186 -134 -485 -268 -597 -268
  -54 0 -59 13 -20 59 42 50 120 88 227 110 110 22 136 40 113 76 -17 24 -48 24
  -166 0 -55 -11 -106 -15 -145 -12 -91 9 -96 12 -89 58 8 47 -9 58 -54 35 -29
  -15 -31 -15 -37 5 -26 81 71 259 213 389 123 114 227 165 321 157 114 -9 103
  -76 -51 -312 -36 -55 -70 -110 -77 -122 -15 -30 -14 -70 3 -76 29 -11 64 23
  126 126 114 186 150 267 150 334 0 37 -6 51 -33 78 -57 57 -179 59 -290 4
  -161 -79 -337 -268 -404 -432 -20 -48 -24 -73 -21 -126 2 -36 7 -73 12 -82 12
  -26 -148 -175 -239 -223 -100 -53 -126 -30 -133 117 -4 105 4 191 37 407 l20
  125 -21 22 c-22 24 -48 31 -48 13 0 -25 -273 -392 -405 -545 l-26 -30 5 30 c4
  17 12 59 20 95 140 648 149 856 35 827 -71 -18 -229 -230 -454 -607 -54 -91
  -104 -172 -112 -182 -35 -40 -275 -138 -378 -154 l-48 -7 8 29 c57 222 94 715
  64 842 -13 52 -34 82 -58 82 -9 0 -41 -20 -71 -44z"/>
  </g>
</svg>
