 <svg version="1.0" xmlns="http://www.w3.org/2000/svg" width="700.000000pt" height="219.000000pt" viewBox="0 0 700.000000 219.000000" preserveAspectRatio="xMidYMid meet">

<defs>
<style>
.signature {
  fill: none;
  stroke-dasharray: 30000;
  stroke-dashoffset: 0;
  -webkit-animation: dash 3s linear forwards;
  -o-amination: dash 3s linear forwards;
  -moz-animation: dash 3s linear forwards;
  animation: dash 3s linear forwards;
}

@-webkit-keyframes dash {
  from { 
    stroke-dashoffset:30000; 
  }
  to { 
    stroke-dashoffset:0; 
  }
}
</style>
</defs>

<g transform="translate(0.000000,219.000000) scale(0.100000,-0.100000)" fill="#000000" stroke="none">
<path class="signature" d="M2924 1916 c-100 -44 -249 -246 -563 -766 -62 -102 -122 -195 -134
-207 -30 -29 -184 -105 -287 -140 -98 -35 -207 -59 -217 -49 -6 6 2 60 37 236
9 45 20 133 40 306 15 138 13 468 -4 533 -36 134 -76 123 -281 -71 -182 -173
-1018 -1087 -1072 -1172 -42 -65 -17 -102 50 -77 13 5 102 101 197 213 183
213 307 355 529 603 163 181 463 485 480 485 18 0 31 -46 31 -114 0 -186 -60
-698 -108 -916 l-8 -35 -89 0 c-50 0 -117 2 -150 5 -57 5 -60 4 -69 -21 -13
-39 -2 -66 56 -143 56 -73 118 -116 167 -116 58 0 103 47 145 152 13 33 19 37
63 43 105 15 242 51 341 90 24 10 45 15 48 12 3 -3 -16 -42 -42 -87 -52 -91
-67 -157 -40 -179 31 -26 82 31 166 186 42 77 85 153 97 169 11 16 29 49 40
74 65 149 433 733 527 838 66 72 76 69 76 -21 0 -165 -67 -524 -175 -937 -31
-118 -60 -233 -66 -254 -13 -53 -6 -66 35 -66 31 0 42 9 128 113 121 144 247
307 373 479 55 75 104 137 109 138 5 0 6 -21 2 -47 -4 -27 -11 -79 -16 -118
-40 -279 -32 -423 27 -503 85 -114 227 -68 484 154 l96 83 54 -19 c29 -11 64
-20 76 -20 29 0 29 -11 1 -36 -41 -36 -78 -106 -78 -146 0 -79 70 -110 196
-89 146 24 459 155 649 271 71 43 91 49 82 26 -3 -8 -11 -34 -17 -57 -12 -42
-29 -63 -93 -112 -24 -18 -37 -36 -37 -51 0 -34 40 -66 82 -66 37 0 55 19 93
95 6 11 62 47 125 80 283 148 361 193 460 268 35 26 66 44 68 39 2 -8 -80
-251 -148 -436 -37 -103 -22 -106 145 -27 55 26 127 58 160 71 33 13 114 51
180 85 318 164 381 209 373 267 -3 20 -9 23 -40 22 -29 -1 -66 -20 -160 -82
-184 -120 -517 -286 -536 -268 -6 7 34 130 122 380 32 90 55 139 79 165 134
148 224 345 242 528 9 91 -1 113 -55 113 -31 0 -42 -5 -57 -28 -37 -53 -108
-230 -194 -480 -39 -116 -44 -125 -98 -175 -128 -118 -276 -216 -495 -328
l-119 -61 7 33 c3 19 17 70 30 114 22 71 58 216 126 508 11 48 29 124 39 170
32 134 34 155 21 186 -15 37 -38 46 -61 26 -27 -25 -35 -54 -84 -295 -25 -124
-50 -244 -55 -267 -6 -24 -15 -64 -21 -90 -28 -125 -32 -134 -73 -169 -98 -85
-320 -216 -489 -288 -188 -80 -350 -117 -363 -83 -10 26 34 76 105 122 77 49
106 60 221 80 46 9 94 22 107 30 29 20 30 59 2 79 -24 16 -40 15 -163 -15 -85
-20 -214 -25 -279 -10 -50 12 -51 13 -38 54 21 63 -8 84 -70 51 -17 -8 -34
-13 -37 -9 -15 15 -5 114 18 170 75 189 298 417 480 491 81 33 200 34 231 3
17 -17 19 -28 14 -62 -9 -53 -70 -169 -167 -317 -91 -140 -98 -152 -98 -183 0
-33 23 -51 55 -43 31 8 114 133 237 356 67 122 85 227 48 287 -33 54 -71 68
-190 67 -92 0 -112 -3 -162 -26 -224 -104 -468 -366 -537 -577 -24 -73 -27
-140 -9 -207 l13 -46 -87 -83 c-153 -146 -278 -218 -326 -189 -61 38 -68 212
-22 524 49 326 48 310 9 339 -32 24 -33 24 -46 5 -7 -10 -46 -69 -86 -129 -60
-91 -160 -221 -424 -553 -24 -29 -25 -4 -4 80 25 103 106 509 120 603 6 39 15
100 21 136 13 88 13 255 -1 282 -11 21 -48 57 -59 56 -3 0 -19 -6 -36 -13z
m-1339 -1266 c4 -6 -2 -27 -12 -48 -26 -53 -59 -55 -112 -6 -61 55 -56 64 38
64 44 0 83 -5 86 -10z"></path>
</g>
</svg>
